# xmcd CD database file
#
# Track frame offsets:
#	150
#	15632
#	36485
#	69822
#	87792
#	115172
#	144135
#	161440
#
# Disc length: 2424 seconds
#
# Revision: 1
# Processed by: cddbd v1.5.2PL0 Copyright (c) Steve Scherf et al.
# Submitted via: CDex 1.51
#
DISCID=58097608
DTITLE=Wha-ha-ha - Shinutokiwa Betsu
DYEAR=1981
DGENRE=Jazz
TTITLE0=Inanaki
TTITLE1=Whaha Whaha
TTITLE2=On The Floor
TTITLE3=Tactics
TTITLE4=My Hapiness (is not yours)
TTITLE5=Kohmori
TTITLE6=Rice and Soy
TTITLE7=Zoo
EXTD=YEAR: 1981
EXTT0=
EXTT1=
EXTT2=
EXTT3=
EXTT4=
EXTT5=
EXTT6=
EXTT7=
PLAYORDER=
